<svg width="24" height="24" viewBox="0 0 24 24" fill="none" xmlns="http://www.w3.org/2000/svg">
  <path d="M2 12C2 6.48 6.48 2 12 2C17.52 2 22 6.48 22 12C22 17.52 17.52 22 12 22C6.48 22 2 17.52 2 12Z" fill="#0077FF"/>
  <path fill-rule="evenodd" clip-rule="evenodd" d="M12.82 16.78H13.82C13.82 16.78 14.15 16.74 14.32 16.56C14.48 16.39 14.47 16.07 14.47 16.07C14.47 16.07 14.45 14.78 15.09 14.56C15.72 14.35 16.52 15.86 17.37 16.45C18.01 16.9 18.49 16.79 18.49 16.79L20.76 16.78C20.76 16.78 21.91 16.7 21.34 15.77C21.29 15.69 21 15.07 19.54 13.71C18.01 12.28 18.21 12.5 20.05 10.09C21.17 8.61 21.63 7.72 21.47 7.32C21.32 6.94 20.56 7.04 20.56 7.04L18 7.06C18 7.06 17.81 7.03 17.67 7.13C17.53 7.23 17.44 7.45 17.44 7.45C17.44 7.45 17 8.56 16.41 9.52C15.16 11.54 14.66 11.66 14.47 11.51C14.02 11.17 14.14 10.29 14.14 9.66C14.14 7.71 14.45 6.91 13.85 6.69C13.63 6.61 13.47 6.56 12.75 6.55C11.84 6.54 11.07 6.55 10.63 6.78C10.34 6.93 10.11 7.26 10.25 7.28C10.42 7.31 10.81 7.41 11.01 7.74C11.27 8.17 11.26 9.01 11.26 9.01C11.26 9.01 11.43 11.19 10.88 11.52C10.5 11.75 9.98 11.33 8.87 9.5C8.3 8.56 7.87 7.52 7.87 7.52C7.87 7.52 7.79 7.31 7.66 7.2C7.5 7.06 7.27 7.02 7.27 7.02L4.83 7.04C4.83 7.04 4.43 7.05 4.3 7.21C4.19 7.35 4.29 7.64 4.29 7.64C4.29 7.64 6.28 12.4 8.54 14.81C10.63 17.04 13 16.78 13 16.78H12.82Z" fill="white"/>
</svg> 