<svg width="48" height="48" viewBox="0 0 48 48" fill="none" xmlns="http://www.w3.org/2000/svg">
  <rect width="48" height="48" rx="8" fill="#60A5FA"/>
  <path d="M24 14C19.0294 14 15 18.0294 15 23C15 27.9706 19.0294 32 24 32C28.9706 32 33 27.9706 33 23C33 18.0294 28.9706 14 24 14ZM24 30C20.134 30 17 26.866 17 23C17 19.134 20.134 16 24 16C27.866 16 31 19.134 31 23C31 26.866 27.866 30 24 30Z" fill="white"/>
  <path d="M24 18C21.2386 18 19 20.2386 19 23C19 25.7614 21.2386 28 24 28C26.7614 28 29 25.7614 29 23C29 20.2386 26.7614 18 24 18ZM24 26C22.3431 26 21 24.6569 21 23C21 21.3431 22.3431 20 24 20C25.6569 20 27 21.3431 27 23C27 24.6569 25.6569 26 24 26Z" fill="white"/>
  <circle cx="24" cy="23" r="2" fill="white"/>
</svg> 