<svg width="32" height="32" viewBox="0 0 32 32" fill="none" xmlns="http://www.w3.org/2000/svg">
  <path d="M16 2C8.268 2 2 8.268 2 16C2 23.732 8.268 30 16 30C23.732 30 30 23.732 30 16C30 8.268 23.732 2 16 2ZM16 28C9.373 28 4 22.627 4 16C4 9.373 9.373 4 16 4C22.627 4 28 9.373 28 16C28 22.627 22.627 28 16 28Z" fill="white" fill-opacity="0.5"/>
  <path d="M16 10C15.448 10 15 10.448 15 11V19.586L11.707 16.293C11.317 15.903 10.683 15.903 10.293 16.293C9.903 16.683 9.903 17.317 10.293 17.707L15.293 22.707C15.488 22.902 15.744 23 16 23C16.256 23 16.512 22.902 16.707 22.707L21.707 17.707C22.097 17.317 22.097 16.683 21.707 16.293C21.317 15.903 20.683 15.903 20.293 16.293L17 19.586V11C17 10.448 16.552 10 16 10Z" fill="white" fill-opacity="0.5"/>
</svg> 